REM DIRINDEX 1\2,1\3
REM DIRNAME folder01,folder02,folder03
TITLE ""
FILE "2000 phrasesTrack12.mp3" MP3
  TRACK 01 AUDIO
    TITLE "2:cjc143_0520"
    INDEX 01 00:00:00
  TRACK 02 AUDIO
    TITLE "0:"
    INDEX 01 00:00:56
  TRACK 03 AUDIO
    TITLE "2:cjc143_0521"
    INDEX 01 00:01:58
  TRACK 04 AUDIO
    TITLE "0:"
    INDEX 01 00:02:73
  TRACK 05 AUDIO
    TITLE "2:cjc143_0522"
    INDEX 01 00:03:33
  TRACK 06 AUDIO
    TITLE "0:"
    INDEX 01 00:04:40
  TRACK 07 AUDIO
    TITLE "2:cjc143_0523"
    INDEX 01 00:04:56
  TRACK 08 AUDIO
    TITLE "0:"
    INDEX 01 00:05:71
  TRACK 09 AUDIO
    TITLE "2:cjc143_0524"
    INDEX 01 00:06:24
  TRACK 10 AUDIO
    TITLE "0:"
    INDEX 01 00:07:33
  TRACK 11 AUDIO
    TITLE "2:cjc143_0525"
    INDEX 01 00:07:52
  TRACK 12 AUDIO
    TITLE "0:"
    INDEX 01 00:09:04
  TRACK 13 AUDIO
    TITLE "2:cjc143_0526"
    INDEX 01 00:09:20
  TRACK 14 AUDIO
    TITLE "0:"
    INDEX 01 00:10:31
  TRACK 15 AUDIO
    TITLE "2:cjc143_0527"
    INDEX 01 00:10:47
  TRACK 16 AUDIO
    TITLE "0:"
    INDEX 01 00:11:60
  TRACK 17 AUDIO
    TITLE "2:cjc143_0528"
    INDEX 01 00:12:18
  TRACK 18 AUDIO
    TITLE "0:"
    INDEX 01 00:13:30
  TRACK 19 AUDIO
    TITLE "2:cjc143_0529"
    INDEX 01 00:13:47
  TRACK 20 AUDIO
    TITLE "0:"
    INDEX 01 00:15:07
  TRACK 21 AUDIO
    TITLE "2:cjc143_0530"
    INDEX 01 00:15:21
  TRACK 22 AUDIO
    TITLE "0:"
    INDEX 01 00:16:38
  TRACK 23 AUDIO
    TITLE "2:cjc143_0531"
    INDEX 01 00:16:59
  TRACK 24 AUDIO
    TITLE "0:"
    INDEX 01 00:18:07
  TRACK 25 AUDIO
    TITLE "2:cjc143_0532"
    INDEX 01 00:18:31
  TRACK 26 AUDIO
    TITLE "0:"
    INDEX 01 00:19:71
  TRACK 27 AUDIO
    TITLE "2:cjc143_0533"
    INDEX 01 00:20:24
  TRACK 28 AUDIO
    TITLE "0:"
    INDEX 01 00:21:51
  TRACK 29 AUDIO
    TITLE "2:cjc143_0534"
    INDEX 01 00:22:01
  TRACK 30 AUDIO
    TITLE "0:"
    INDEX 01 00:23:51
  TRACK 31 AUDIO
    TITLE "2:cjc143_0535"
    INDEX 01 00:23:71
  TRACK 32 AUDIO
    TITLE "0:"
    INDEX 01 00:25:31
  TRACK 33 AUDIO
    TITLE "2:cjc143_0536"
    INDEX 01 00:25:66
  TRACK 34 AUDIO
    TITLE "0:"
    INDEX 01 00:27:43
  TRACK 35 AUDIO
    TITLE "2:cjc143_0537"
    INDEX 01 00:28:06
  TRACK 36 AUDIO
    TITLE "0:"
    INDEX 01 00:29:09
  TRACK 37 AUDIO
    TITLE "2:cjc143_0538"
    INDEX 01 00:29:44
  TRACK 38 AUDIO
    TITLE "0:"
    INDEX 01 00:31:06
  TRACK 39 AUDIO
    TITLE "2:cjc143_0539"
    INDEX 01 00:31:39
  TRACK 40 AUDIO
    TITLE "0:"
    INDEX 01 00:32:74
  TRACK 41 AUDIO
    TITLE "2:cjc143_0540"
    INDEX 01 00:33:26
  TRACK 42 AUDIO
    TITLE "0:"
    INDEX 01 00:34:55
  TRACK 43 AUDIO
    TITLE "2:cjc143_0541"
    INDEX 01 00:34:69
  TRACK 44 AUDIO
    TITLE "0:"
    INDEX 01 00:36:17
  TRACK 45 AUDIO
    TITLE "2:cjc143_0542"
    INDEX 01 00:36:58
  TRACK 46 AUDIO
    TITLE "0:"
    INDEX 01 00:38:04
  TRACK 47 AUDIO
    TITLE "2:cjc143_0543"
    INDEX 01 00:38:18
  TRACK 48 AUDIO
    TITLE "0:"
    INDEX 01 00:39:47
  TRACK 49 AUDIO
    TITLE "2:cjc143_0544"
    INDEX 01 00:40:01
  TRACK 50 AUDIO
    TITLE "0:"
    INDEX 01 00:41:14
  TRACK 51 AUDIO
    TITLE "2:cjc143_0545"
    INDEX 01 00:41:49
  TRACK 52 AUDIO
    TITLE "0:"
    INDEX 01 00:43:25
  TRACK 53 AUDIO
    TITLE "2:cjc143_0546"
    INDEX 01 00:43:44
  TRACK 54 AUDIO
    TITLE "0:"
    INDEX 01 00:44:56
  TRACK 55 AUDIO
    TITLE "2:cjc143_0547"
    INDEX 01 00:45:02
  TRACK 56 AUDIO
    TITLE "0:"
    INDEX 01 00:46:49
  TRACK 57 AUDIO
    TITLE "2:cjc143_0548"
    INDEX 01 00:46:62
  TRACK 58 AUDIO
    TITLE "0:"
    INDEX 01 00:48:00
  TRACK 59 AUDIO
    TITLE "2:cjc143_0549"
    INDEX 01 00:48:22
  TRACK 60 AUDIO
    TITLE "0:"
    INDEX 01 00:49:43
  TRACK 61 AUDIO
    TITLE "2:cjc143_0550"
    INDEX 01 00:49:70
  TRACK 62 AUDIO
    TITLE "0:"
    INDEX 01 00:51:44
  TRACK 63 AUDIO
    TITLE "2:cjc143_0551"
    INDEX 01 00:51:73
  TRACK 64 AUDIO
    TITLE "0:"
    INDEX 01 00:53:58
  TRACK 65 AUDIO
    TITLE "2:cjc143_0552"
    INDEX 01 00:54:17
  TRACK 66 AUDIO
    TITLE "0:"
    INDEX 01 00:55:44
  TRACK 67 AUDIO
    TITLE "2:cjc143_0553"
    INDEX 01 00:56:04
  TRACK 68 AUDIO
    TITLE "0:"
    INDEX 01 00:57:66
  TRACK 69 AUDIO
    TITLE "2:cjc143_0554"
    INDEX 01 00:58:22
  TRACK 70 AUDIO
    TITLE "0:"
    INDEX 01 00:59:41
  TRACK 71 AUDIO
    TITLE "2:cjc143_0555"
    INDEX 01 00:59:71
  TRACK 72 AUDIO
    TITLE "0:"
    INDEX 01 01:01:09
  TRACK 73 AUDIO
    TITLE "2:cjc143_0556"
    INDEX 01 01:01:60
  TRACK 74 AUDIO
    TITLE "0:"
    INDEX 01 01:02:67
  TRACK 75 AUDIO
    TITLE "2:cjc143_0557"
    INDEX 01 01:03:26
  TRACK 76 AUDIO
    TITLE "0:"
    INDEX 01 01:04:66
  TRACK 77 AUDIO
    TITLE "2:cjc143_0558"
    INDEX 01 01:05:05
  TRACK 78 AUDIO
    TITLE "0:"
    INDEX 01 01:06:38
  TRACK 79 AUDIO
    TITLE "2:cjc143_0559"
    INDEX 01 01:07:14
  TRACK 80 AUDIO
    TITLE "0:"
    INDEX 01 01:09:05
  TRACK 81 AUDIO
    TITLE "2:cjc143_0560"
    INDEX 01 01:09:32
  TRACK 82 AUDIO
    TITLE "0:"
    INDEX 01 01:10:53
  TRACK 83 AUDIO
    TITLE "2:cjc143_0561"
    INDEX 01 01:11:15
  TRACK 84 AUDIO
    TITLE "0:"
    INDEX 01 01:12:28
  TRACK 85 AUDIO
    TITLE "2:cjc143_0562"
    INDEX 01 01:12:54
  TRACK 86 AUDIO
    TITLE "0:"
    INDEX 01 01:14:23
  TRACK 87 AUDIO
    TITLE "2:cjc143_0563"
    INDEX 01 01:14:51
  TRACK 88 AUDIO
    TITLE "0:"
    INDEX 01 01:16:07
  TRACK 89 AUDIO
    TITLE "2:cjc143_0564"
    INDEX 01 01:16:44
  TRACK 90 AUDIO
    TITLE "0:"
    INDEX 01 01:18:35
  TRACK 91 AUDIO
    TITLE "2:cjc143_0565"
    INDEX 01 01:18:47
  TRACK 92 AUDIO
    TITLE "0:"
    INDEX 01 01:20:04
  TRACK 93 AUDIO
    TITLE "2:cjc143_0566"
    INDEX 01 01:20:16
  TRACK 94 AUDIO
    TITLE "0:"
    INDEX 01 01:21:49
  TRACK 95 AUDIO
    TITLE "2:cjc143_0567"
    INDEX 01 01:22:03
  TRACK 96 AUDIO
    TITLE "0:"
    INDEX 01 01:23:24
  TRACK 97 AUDIO
    TITLE "2:cjc143_0568"
    INDEX 01 01:23:42
  TRACK 98 AUDIO
    TITLE "0:"
    INDEX 01 01:24:65
  TRACK 99 AUDIO
    TITLE "2:cjc143_0569"
    INDEX 01 01:25:09
  TRACK 100 AUDIO
    TITLE "0:"
    INDEX 01 01:26:74
  TRACK 101 AUDIO
    TITLE "2:cjc143_0570"
    INDEX 01 01:27:16
  TRACK 102 AUDIO
    TITLE "0:"
    INDEX 01 01:28:29
  TRACK 103 AUDIO
    TITLE "2:cjc143_0571"
    INDEX 01 01:28:61
  TRACK 104 AUDIO
    TITLE "0:"
    INDEX 01 01:30:32
  TRACK 105 AUDIO
    TITLE "2:cjc143_0572"
    INDEX 01 01:30:54
  TRACK 106 AUDIO
    TITLE "0:"
    INDEX 01 01:32:02
  TRACK 107 AUDIO
    TITLE "2:cjc143_0573"
    INDEX 01 01:32:41
  TRACK 108 AUDIO
    TITLE "0:"
    INDEX 01 01:34:14
  TRACK 109 AUDIO
    TITLE "2:cjc143_0574"
    INDEX 01 01:34:36
  TRACK 110 AUDIO
    TITLE "0:"
    INDEX 01 01:35:63
  TRACK 111 AUDIO
    TITLE "2:cjc143_0575"
    INDEX 01 01:36:09
  TRACK 112 AUDIO
    TITLE "0:"
    INDEX 01 01:37:46
  TRACK 113 AUDIO
    TITLE "2:cjc143_0576"
    INDEX 01 01:37:62
  TRACK 114 AUDIO
    TITLE "0:"
    INDEX 01 01:39:08
  TRACK 115 AUDIO
    TITLE "2:cjc143_0577"
    INDEX 01 01:39:57
  TRACK 116 AUDIO
    TITLE "0:"
    INDEX 01 01:41:10
  TRACK 117 AUDIO
    TITLE "2:cjc143_0578"
    INDEX 01 01:41:28
  TRACK 118 AUDIO
    TITLE "0:"
    INDEX 01 01:42:43
  TRACK 119 AUDIO
    TITLE "2:cjc143_0579"
    INDEX 01 01:42:73
  TRACK 120 AUDIO
    TITLE "0:"
    INDEX 01 01:44:13
  TRACK 121 AUDIO
    TITLE "2:cjc143_0580"
    INDEX 01 01:44:46
  TRACK 122 AUDIO
    TITLE "0:"
    INDEX 01 01:45:61
  TRACK 123 AUDIO
    TITLE "2:cjc143_0581"
    INDEX 01 01:46:29
  TRACK 124 AUDIO
    TITLE "0:"
    INDEX 01 01:47:40
  TRACK 125 AUDIO
    TITLE "2:cjc143_0582"
    INDEX 01 01:47:66
  TRACK 126 AUDIO
    TITLE "0:"
    INDEX 01 01:49:37
  TRACK 127 AUDIO
    TITLE "2:cjc143_0583"
    INDEX 01 01:49:53
  TRACK 128 AUDIO
    TITLE "0:"
    INDEX 01 01:51:03
  TRACK 129 AUDIO
    TITLE "2:cjc143_0584"
    INDEX 01 01:51:15
  TRACK 130 AUDIO
    TITLE "0:"
    INDEX 01 01:52:32
